<svg width="26" height="24" viewBox="0 0 26 24" fill="none" xmlns="http://www.w3.org/2000/svg">
<path opacity="0.32" d="M2.42815 19.6575C2.52254 20.5161 3.1218 21.1957 4.02054 21.3755C5.43914 21.6592 8.11331 22 12.7742 22C17.4351 22 20.1092 21.6592 21.5279 21.3755C22.4266 21.1957 23.0259 20.5161 23.1202 19.6575C23.2602 18.3844 23.4194 16.0469 23.4194 12C23.4194 7.95305 23.2602 5.6156 23.1202 4.34251C23.0259 3.48389 22.4266 2.80424 21.5278 2.62451C20.1092 2.34081 17.4351 2 12.7742 2C8.11331 2 5.43914 2.34081 4.02054 2.62451C3.1218 2.80424 2.52254 3.48389 2.42815 4.34251C2.28819 5.6156 2.12903 7.95305 2.12903 12C2.12903 16.0469 2.28819 18.3844 2.42815 19.6575Z" fill="#637381"/>
<path d="M14.8374 13.8559C16.2476 13.1583 17.2092 11.768 17.2092 10.1666C17.2092 7.8655 15.2233 6 12.7737 6C10.3241 6 8.33821 7.8655 8.33821 10.1666C8.33821 11.768 9.29984 13.1584 10.7102 13.856C8.8215 14.5319 7.37935 16.1092 6.93263 18.0529C6.87083 18.3219 7.02838 18.5981 7.31681 18.6471C8.35195 18.8231 10.0662 19 12.7748 19C15.4834 19 17.1976 18.8231 18.2327 18.6471C18.5201 18.5983 18.6773 18.3231 18.6157 18.0551C18.1696 16.1103 16.727 14.5321 14.8374 13.8559Z" fill="#637381"/>
</svg>
