<svg width="12" height="19" viewBox="0 0 12 19" fill="none" xmlns="http://www.w3.org/2000/svg">
<path d="M5.41697 14.2797C6.34989 14.2797 7.02377 14.1208 7.43846 13.803C7.87029 13.4852 8.08629 13.0957 8.08629 12.6348C8.08629 12.2217 7.92223 11.888 7.59394 11.6335C7.26566 11.3793 6.77331 11.1568 6.11674 10.9661L4.69114 10.5371C3.98263 10.3303 3.34337 10.1078 2.7732 9.86946C2.20303 9.6311 1.71926 9.34506 1.3218 9.01118C0.924429 8.67747 0.613371 8.2802 0.3888 7.81936C0.164143 7.35836 0.0518565 6.81012 0.0518565 6.17431C0.0518565 5.09364 0.414685 4.19572 1.14043 3.48054C1.86609 2.76536 2.9028 2.28855 4.25057 2.05019V1.37215C4.25057 0.667073 4.73537 0.0369635 5.43446 0.00595895C5.52429 0.00198622 5.61343 0 5.70189 0C6.34114 0 6.79903 0.103291 7.07554 0.309873C7.36937 0.516541 7.51612 0.889978 7.51612 1.43035V1.95484C8.622 2.06608 9.52063 2.31239 10.2117 2.69385C10.9029 3.05935 11.2485 3.5441 11.2485 4.14805C11.2485 4.41707 11.1777 4.66614 11.0556 4.89215C10.7304 5.49325 9.91903 5.44885 9.27531 5.23001C9.0912 5.1674 8.89371 5.10875 8.68252 5.05391C8.02594 4.86322 7.30886 4.76788 6.53126 4.76788C5.66743 4.76788 5.01943 4.90295 4.5876 5.17318C4.17274 5.42744 3.96549 5.76115 3.96549 6.17431C3.96549 6.50819 4.10366 6.77834 4.38017 6.98492C4.67383 7.1915 5.1144 7.38219 5.70189 7.55699L7.15337 7.96238C8.7084 8.40733 9.90069 8.99529 10.7301 9.72645C11.5767 10.4574 12 11.4428 12 12.6825C12 13.7791 11.6199 14.7089 10.8597 15.4717C10.0994 16.2187 8.98491 16.7193 7.51612 16.9736V17.6279C7.51612 18.3329 7.03131 18.963 6.33223 18.994C6.24257 18.9979 6.15326 19 6.0648 19C5.42537 19 4.95909 18.8967 4.66526 18.6901C4.38874 18.4834 4.25057 18.1099 4.25057 17.5696V17.0927C2.9892 16.9656 1.96114 16.6875 1.16631 16.2585C0.388801 15.8134 0 15.2572 0 14.5896C0 14.1997 0.148543 13.8612 0.386828 13.5765C0.813428 13.067 1.57303 13.1933 2.16077 13.4995C2.41149 13.6301 2.68474 13.755 2.98063 13.8745C3.68897 14.1446 4.5012 14.2797 5.41697 14.2797Z" fill="#637381"/>
</svg>
