<svg width="25" height="24" viewBox="0 0 25 24" fill="none" xmlns="http://www.w3.org/2000/svg">
<g opacity="0.32">
<path d="M12.4355 10.75C17.3101 10.75 20.1842 10.6481 21.6254 10.5744C22.2924 10.5403 22.7984 10.0077 22.7984 9.36309V8.19429C22.7984 7.74459 22.6483 7.30339 22.3182 6.98589C20.3821 5.12349 15.9327 2.72323 12.9174 2.08809C12.5988 2.02097 12.2723 2.02097 11.9537 2.08809C8.93842 2.72323 4.48896 5.12349 2.55284 6.98589C2.22279 7.30339 2.07263 7.74459 2.07263 8.19429V9.36309C2.07263 10.0077 2.57865 10.5403 3.24566 10.5744C4.68689 10.6481 7.56098 10.75 12.4355 10.75Z" fill="#637381"/>
<path d="M2.25782 18.7286C2.39246 18.3514 2.78381 18.1799 3.19659 18.1573C4.26865 18.0985 6.89314 18 12.4355 18C17.9779 18 20.6024 18.0985 21.6745 18.1573C22.0872 18.1799 22.4786 18.3514 22.6133 18.7286C22.713 19.0081 22.7984 19.4175 22.7984 20C22.7984 20.5825 22.713 20.9918 22.6133 21.2713C22.4786 21.6485 22.0872 21.8201 21.6745 21.8427C20.6024 21.9014 17.9779 22 12.4355 22C6.89314 22 4.26865 21.9014 3.19659 21.8427C2.78381 21.8201 2.39246 21.6485 2.25782 21.2713C2.15805 20.9918 2.07263 20.5825 2.07263 20C2.07263 19.4175 2.15805 19.0081 2.25782 18.7286Z" fill="#637381"/>
</g>
<path d="M12.4355 9C13.5801 9 14.508 8.10457 14.508 7C14.508 5.89543 13.5801 5 12.4355 5C11.2908 5 10.3629 5.89543 10.3629 7C10.3629 8.10457 11.2908 9 12.4355 9Z" fill="#637381"/>
<path d="M14.4528 10.7438C13.8222 10.7478 13.1504 10.75 12.4355 10.75C11.7206 10.75 11.0487 10.7478 10.4181 10.7438C10.3916 11.3951 10.3629 12.5511 10.3629 14.5C10.3629 16.2195 10.3852 17.3217 10.4087 18.0047C11.0365 18.0017 11.711 18 12.4355 18C13.1599 18 13.8345 18.0017 14.4622 18.0047C14.4857 17.3217 14.508 16.2195 14.508 14.5C14.508 12.5511 14.4793 11.3951 14.4528 10.7438Z" fill="#637381"/>
<path d="M16.6368 10.7212C16.61 11.3682 16.5806 12.5284 16.5806 14.5C16.5806 16.2343 16.6034 17.3407 16.627 18.0223C18.4944 18.0443 19.7954 18.0792 20.6761 18.1123C20.7009 17.4396 20.7258 16.3128 20.7258 14.5C20.7258 12.4185 20.693 11.2414 20.6652 10.6177C19.7021 10.6562 18.3805 10.6956 16.6368 10.7212Z" fill="#637381"/>
<path d="M4.20571 10.6177C5.16887 10.6562 6.49042 10.6956 8.23417 10.7212C8.2609 11.3682 8.2903 12.5284 8.2903 14.5C8.2903 16.2343 8.26755 17.3407 8.24388 18.0223C6.37653 18.0443 5.07551 18.0792 4.19479 18.1123C4.17002 17.4396 4.14514 16.3128 4.14514 14.5C4.14514 12.4185 4.17794 11.2414 4.20571 10.6177Z" fill="#637381"/>
</svg>
