<svg width="27" height="24" viewBox="0 0 27 24" fill="none" xmlns="http://www.w3.org/2000/svg">
<g opacity="0.32">
<path d="M13.6213 7.76946C13.888 7.23353 14.0379 6.62933 14.0379 5.99011C14.0379 5.35089 13.888 4.74669 13.6213 4.21076C14.1676 3.47036 15.0462 2.99011 16.0369 2.99011C17.6938 2.99011 19.0369 4.33326 19.0369 5.99011C19.0369 7.64697 17.6938 8.99011 16.0369 8.99011C15.0462 8.99011 14.1676 8.50986 13.6213 7.76946Z" fill="#637381"/>
<path d="M15.0967 19.7559C15.6933 19.9067 16.3489 19.9901 17.0369 19.9901C19.7984 19.9901 22.0369 18.647 22.0369 16.9901C22.0369 15.3333 19.7984 13.9901 17.0369 13.9901C16.348 13.9901 15.6915 14.0737 15.0943 14.225C16.2982 14.9434 17.0379 15.9179 17.0379 16.9911C17.0379 18.0636 16.2992 19.0376 15.0967 19.7559Z" fill="#637381"/>
</g>
<path d="M10.038 9.99011C12.2471 9.99011 14.038 8.19925 14.038 5.99011C14.038 3.78097 12.2471 1.99011 10.038 1.99011C7.82882 1.99011 6.03796 3.78097 6.03796 5.99011C6.03796 8.19925 7.82882 9.99011 10.038 9.99011Z" fill="#637381"/>
<path d="M10.038 20.9911C13.904 20.9911 17.038 19.2003 17.038 16.9911C17.038 14.782 13.904 12.9911 10.038 12.9911C6.17197 12.9911 3.03796 14.782 3.03796 16.9911C3.03796 19.2003 6.17197 20.9911 10.038 20.9911Z" fill="#637381"/>
</svg>
